<svg xmlns="http://www.w3.org/2000/svg" viewBox="0 0 610.24 175.3"><defs><style>.cls-1{fill:#4f20d2;}.cls-2{fill:#ec1e24;}.cls-3,.cls-6{fill:#006de1;}.cls-4,.cls-5{fill:#ffd900;}.cls-4,.cls-6{stroke:#4f20d2;stroke-linecap:round;stroke-linejoin:round;stroke-width:2px;}</style></defs><g id="Layer_2" data-name="Layer 2"><g id="Layer_1-2" data-name="Layer 1"><path class="cls-1" d="M609.74,29.22h-41.5a.51.51,0,0,0-.5.5v39.5a4.4,4.4,0,0,1-2.07,4,8.86,8.86,0,0,1-4.93,1.42,9.14,9.14,0,0,1-2.6-.38,7.86,7.86,0,0,1-2.26-1.07,5.63,5.63,0,0,1-1.56-1.7,4.6,4.6,0,0,1-.58-2.35V29.72a.5.5,0,0,0-.5-.5H389a.51.51,0,0,0-.5.5V68.79L375.22,29.56a.51.51,0,0,0-.48-.34h-44.8a.51.51,0,0,0-.5.5V91.21l-3.26-11.67q-1.76-6.26-3.55-12.51t-3.55-12.49L315.58,42q-1.75-6.26-3.56-12.46a.5.5,0,0,0-.48-.36H249.45a.5.5,0,0,0-.49.37q-1.69,6.19-3.45,12.45l-7.92,28.28c.1-1.13.16-2.26.16-3.4a39.06,39.06,0,0,0-1.63-11.14,35.68,35.68,0,0,0-5-10.29A34,34,0,0,0,222.53,37a42.26,42.26,0,0,0-12.6-5.72,62.29,62.29,0,0,0-16.78-2.07h-59.6a.5.5,0,0,0-.5.5v75a.5.5,0,0,0,.5.5h59.6A56.55,56.55,0,0,0,213.27,102a38.8,38.8,0,0,0,13.88-8.72,35.76,35.76,0,0,0,6.53-9L231.51,92q-1.74,6.24-3.55,12.54a.49.49,0,0,0,.09.44.48.48,0,0,0,.4.2h42.69a.5.5,0,0,0,.5-.41l1.63-9.39H286l1.63,9.39a.49.49,0,0,0,.49.41h80.3a.5.5,0,0,0,.5-.5V71.09l11.83,33.8a.5.5,0,0,0,.47.33h131.9a.5.5,0,0,0,.5-.5V87.62c.12.23.24.47.37.69a27.68,27.68,0,0,0,7.58,8.76,46.82,46.82,0,0,0,11.12,6.22,65.48,65.48,0,0,0,13.5,3.72,87,87,0,0,0,14.53,1.21,85.23,85.23,0,0,0,18.06-1.91,58.76,58.76,0,0,0,15.88-5.8A33.74,33.74,0,0,0,606,90.76,22.92,22.92,0,0,0,610.24,77V29.72A.5.5,0,0,0,609.74,29.22Zm-98.5,7.5v37.6h-26.4ZM457,60l-29,37.64V60ZM284.68,87.42H274.62q.75-4.61,1.32-8.17c.4-2.5.83-5.16,1.3-8s.91-5.51,1.35-8c.31-1.85.66-3.88,1-6.08.39,2.2.74,4.23,1,6.07q.6,3.81,1.3,8t1.35,8C283.72,81.65,284.18,84.4,284.68,87.42ZM173.65,59h11.5a10.27,10.27,0,0,1,4.95,1.09,7.72,7.72,0,0,1,3.06,3,8.3,8.3,0,0,1,.47,7.26A8,8,0,0,1,191.89,73a8.17,8.17,0,0,1-2.78,1.79,10.12,10.12,0,0,1-3.76.66h-11.7Z"/><path class="cls-1" d="M161.36,121.41a9.28,9.28,0,0,0-3.92-4A13.52,13.52,0,0,0,151,116H133.8a.51.51,0,0,0-.5.5v34.2a.5.5,0,0,0,.5.5h6.48a.5.5,0,0,0,.5-.5V139h9.82a14,14,0,0,0,6.64-1.43,9.54,9.54,0,0,0,4.07-4.08,13,13,0,0,0,1.36-6.06A13.15,13.15,0,0,0,161.36,121.41Zm-20.58,1.13h9.62a5.36,5.36,0,0,1,2.65.58,3.79,3.79,0,0,1,1.54,1.63,6.13,6.13,0,0,1,.55,2.72,5.27,5.27,0,0,1-1.24,3.72,4.52,4.52,0,0,1-3.5,1.31h-9.62Z"/><path class="cls-1" d="M190.88,117.38a23.67,23.67,0,0,0-18.91,0,13.73,13.73,0,0,0-6.18,6,21.79,21.79,0,0,0-2.13,10.18,21.77,21.77,0,0,0,2.13,10.15,13.72,13.72,0,0,0,6.18,6.08,23.67,23.67,0,0,0,18.91,0,13.75,13.75,0,0,0,6.15-6.08,21.77,21.77,0,0,0,2.13-10.15A21.82,21.82,0,0,0,197,123.42,13.76,13.76,0,0,0,190.88,117.38Zm-5.09,27.22a13.68,13.68,0,0,1-8.76,0,8,8,0,0,1-3.13-2.09,9.08,9.08,0,0,1-1.91-3.45,16.58,16.58,0,0,1-.65-4.86v-1.1a17,17,0,0,1,.65-4.93,9.07,9.07,0,0,1,1.91-3.48A8,8,0,0,1,177,122.6a13.87,13.87,0,0,1,8.76,0,8.14,8.14,0,0,1,3.13,2.09,9.23,9.23,0,0,1,1.93,3.48,16.32,16.32,0,0,1,.68,4.93v1.1a15.89,15.89,0,0,1-.68,4.86,9.25,9.25,0,0,1-1.93,3.45A8,8,0,0,1,185.79,144.6Z"/><path class="cls-1" d="M229.61,116h-6.73a.51.51,0,0,0-.47.34l-8.08,23.58c-.13.4-.27.81-.4,1.23l-.35,1.09h0c-.13-.38-.26-.78-.39-1.21s-.28-.84-.4-1.16l-8.13-23.53a.51.51,0,0,0-.47-.34h-7a.49.49,0,0,0-.41.22.5.5,0,0,0-.06.46l12.46,34.19a.5.5,0,0,0,.47.33h7.53a.5.5,0,0,0,.47-.33l12.46-34.19a.5.5,0,0,0-.06-.46A.49.49,0,0,0,229.61,116Z"/><path class="cls-1" d="M263.08,133.57a15.29,15.29,0,0,0-3.55-1.93c-1.29-.5-2.63-.95-4-1.34s-2.66-.74-3.95-1.07a30.75,30.75,0,0,1-3.38-1.08,6.93,6.93,0,0,1-2.26-1.34,2.3,2.3,0,0,1-.74-1.73,2.2,2.2,0,0,1,.7-1.66,5,5,0,0,1,2.22-1.12,14.74,14.74,0,0,1,3.71-.41,10.57,10.57,0,0,1,3.5.52,5.15,5.15,0,0,1,2.23,1.4,3.06,3.06,0,0,1,.75,2.12v.49a.5.5,0,0,0,.5.5h6.43a.5.5,0,0,0,.5-.5v-.59a9.51,9.51,0,0,0-1.11-4.71,9.32,9.32,0,0,0-3.05-3.26,13.65,13.65,0,0,0-4.42-1.87,23,23,0,0,0-5.28-.58,24.73,24.73,0,0,0-5.54.58,14.56,14.56,0,0,0-4.52,1.81,9.26,9.26,0,0,0-3.19,11.83,8.63,8.63,0,0,0,2.57,2.93,16.86,16.86,0,0,0,3.54,1.93,35.41,35.41,0,0,0,4,1.34l3.93,1.07a26.62,26.62,0,0,1,3.38,1.15,6.67,6.67,0,0,1,2.25,1.48,2.84,2.84,0,0,1,.76,2.05,3,3,0,0,1-.24,1.2,2.74,2.74,0,0,1-.74,1,4.82,4.82,0,0,1-1.37.81,9.76,9.76,0,0,1-2.09.54,18.21,18.21,0,0,1-2.84.2,12.65,12.65,0,0,1-4.07-.6,5.41,5.41,0,0,1-2.52-1.64,3.81,3.81,0,0,1-.83-2.5,3.47,3.47,0,0,1,0-.43q0-.3,0-.42a.51.51,0,0,0-.5-.5h-6.53a.5.5,0,0,0-.5.5,4.1,4.1,0,0,1,0,.41c0,.21,0,.43,0,.64a9.66,9.66,0,0,0,1.21,4.91,10.37,10.37,0,0,0,3.3,3.46,14.78,14.78,0,0,0,4.74,2,24,24,0,0,0,5.55.64,25.07,25.07,0,0,0,7.61-1.07,11,11,0,0,0,5.37-3.56,10.15,10.15,0,0,0,2-6.49,8.6,8.6,0,0,0-1-4.18A9,9,0,0,0,263.08,133.57Z"/><path class="cls-1" d="M288.82,124.9a10.83,10.83,0,0,0-5.82-1.52,11,11,0,0,0-4.86,1.07,8.67,8.67,0,0,0-3.14,2.6l-.38-2.64a.51.51,0,0,0-.5-.43h-5a.5.5,0,0,0-.5.5v34.84a.5.5,0,0,0,.5.5h6.08a.5.5,0,0,0,.5-.5V148.75a8.3,8.3,0,0,0,1.45,1.33,8.43,8.43,0,0,0,2.81,1.3,13.08,13.08,0,0,0,3.42.42,9.53,9.53,0,0,0,9.23-6.24,20.32,20.32,0,0,0,1.34-7.92,21.07,21.07,0,0,0-1.31-8A9.91,9.91,0,0,0,288.82,124.9Zm-2.73,17.47a4.42,4.42,0,0,1-1.7,2.41,6,6,0,0,1-3.29.78,5.5,5.5,0,0,1-2.44-.49,4.32,4.32,0,0,1-1.66-1.43,6.91,6.91,0,0,1-1-2.4,15.29,15.29,0,0,1-.34-3.35v-.6a13.34,13.34,0,0,1,.6-4.3,5,5,0,0,1,1.76-2.52,5.14,5.14,0,0,1,3.07-.85,6,6,0,0,1,3.29.78,4.43,4.43,0,0,1,1.7,2.43,15.39,15.39,0,0,1,.55,4.46v.7A14.89,14.89,0,0,1,286.09,142.37Z"/><path class="cls-1" d="M316.2,124.91a18.73,18.73,0,0,0-14.83,0,9.93,9.93,0,0,0-4.56,4.71,21.84,21.84,0,0,0,0,15.91,9.91,9.91,0,0,0,4.56,4.74,18.73,18.73,0,0,0,14.83,0,10,10,0,0,0,4.54-4.74,22,22,0,0,0,0-15.91A10,10,0,0,0,316.2,124.91ZM312.37,145a8.11,8.11,0,0,1-7.19,0,4.69,4.69,0,0,1-1.94-2.54,13.37,13.37,0,0,1-.65-4.49v-.7a13.37,13.37,0,0,1,.65-4.49,4.69,4.69,0,0,1,1.94-2.54,8.11,8.11,0,0,1,7.19,0,4.82,4.82,0,0,1,1.94,2.54,13.39,13.39,0,0,1,.64,4.49v.7a13.39,13.39,0,0,1-.64,4.49A4.82,4.82,0,0,1,312.37,145Z"/><path class="cls-1" d="M336.59,130a.5.5,0,0,0,.5-.5v-5a.5.5,0,0,0-.5-.5h-4v-6.83a.51.51,0,0,0-.5-.5h-4.84a.51.51,0,0,0-.5.43l-1,6.9h-2.86a.5.5,0,0,0-.5.5v5a.5.5,0,0,0,.5.5h2.64v14.76a9.31,9.31,0,0,0,.61,3.29,5.79,5.79,0,0,0,2.15,2.73,7.16,7.16,0,0,0,4.12,1.06,11.32,11.32,0,0,0,1.58-.13c.54-.09,1.06-.19,1.56-.31a9.63,9.63,0,0,0,1.29-.39.5.5,0,0,0,.31-.47v-4.19a.5.5,0,0,0-.5-.5h-2.34a1.73,1.73,0,0,1-1.29-.42,1.76,1.76,0,0,1-.4-1.27V130Z"/><path class="cls-1" d="M1,69.39a1,1,0,1,1,0-2H1a1,1,0,0,1,0,2Z"/><path class="cls-1" d="M84.4,98.28a1,1,0,0,1-1-1,1,1,0,0,1,1-1h0a1,1,0,0,1,0,2Z"/><path class="cls-1" d="M1,50.14a1,1,0,1,1,0-2H1a1,1,0,1,1,0,2Z"/><path class="cls-1" d="M34.37,107.9a1,1,0,1,1,0-2h0a1,1,0,1,1,0,2Z"/><path class="cls-1" d="M17.69,98.28a1,1,0,0,1-1-1,1,1,0,0,1,1-1h0a1,1,0,0,1,0,2Z"/><path class="cls-1" d="M17.69,98.28a1,1,0,0,1-1-1,1,1,0,0,1,1-1h0a1,1,0,0,1,0,2Z"/><path class="cls-1" d="M34.37,11.63a1,1,0,1,1,0-2h0a1,1,0,0,1,0,2Z"/><path class="cls-1" d="M17.69,21.26a1,1,0,0,1-1-1,1,1,0,0,1,1-1h0a1,1,0,0,1,0,2Z"/><path class="cls-1" d="M84.4,21.26a1,1,0,0,1-1-1,1,1,0,0,1,1-1h0a1,1,0,0,1,0,2Z"/><path class="cls-1" d="M17.69,21.26a1,1,0,0,1-1-1,1,1,0,0,1,1-1h0a1,1,0,0,1,0,2Z"/><path class="cls-1" d="M51,98.28a1,1,0,0,1-1-1,1,1,0,0,1,1-1h0a1,1,0,0,1,0,2Z"/><path class="cls-1" d="M51,21.26a1,1,0,0,1-1-1,1,1,0,0,1,1-1h0a1,1,0,0,1,0,2Z"/><polygon class="cls-2" points="67.7 87.65 67.7 87.65 67.7 87.65 67.7 87.65"/><path class="cls-1" d="M67.72,88.65a1,1,0,1,1,0-2h0a1,1,0,0,1,0,2Z"/><polygon class="cls-2" points="67.7 29.88 67.7 29.88 67.7 29.88 67.7 29.88"/><path class="cls-1" d="M67.72,30.88a1,1,0,1,1,0-2h0a1,1,0,0,1,0,2Z"/><polygon class="cls-3" points="84.38 39.51 84.38 135.78 67.7 126.16 67.7 49.14 84.38 39.51"/><path class="cls-1" d="M84.38,136.79a1,1,0,0,1-.5-.14L67.2,127a1,1,0,0,1-.5-.86v-77a1,1,0,0,1,.5-.87l16.68-9.63a1,1,0,0,1,1,0,1,1,0,0,1,.5.87v96.28a1,1,0,0,1-.5.86A1,1,0,0,1,84.38,136.79ZM68.7,125.58l14.68,8.47V41.24L68.7,49.72Z"/><polygon class="cls-2" points="34.35 87.65 34.35 87.65 34.35 87.65 34.35 87.65"/><path class="cls-1" d="M34.37,88.65a1,1,0,1,1,0-2h0a1,1,0,1,1,0,2Z"/><polygon class="cls-2" points="17.67 39.51 17.67 39.51 17.67 39.51 17.67 39.51"/><path class="cls-1" d="M17.69,40.51a1,1,0,0,1,0-2h0a1,1,0,1,1,0,2Z"/><path class="cls-1" d="M34.37,69.39a1,1,0,1,1,0-2h0a1,1,0,0,1,0,2Z"/><polygon class="cls-2" points="17.67 58.77 17.67 58.77 17.67 58.77 17.67 58.77"/><path class="cls-1" d="M17.69,59.77a1,1,0,0,1-1-1,1,1,0,0,1,1-1h0a1,1,0,1,1,0,2Z"/><path class="cls-1" d="M51,2a1,1,0,0,1,0-2h0a1,1,0,0,1,0,2Z"/><polygon class="cls-2" points="17.67 78.02 17.67 78.02 17.67 78.02 17.67 78.02"/><path class="cls-1" d="M17.69,79a1,1,0,0,1,0-2h0a1,1,0,0,1,0,2Z"/><path class="cls-1" d="M34.37,50.14a1,1,0,1,1,0-2h0a1,1,0,0,1,0,2Z"/><polygon class="cls-2" points="67.7 68.39 67.7 68.39 67.7 68.39 67.7 68.39"/><path class="cls-1" d="M67.72,69.39a1,1,0,1,1,0-2h0a1,1,0,0,1,0,2Z"/><path class="cls-1" d="M34.37,30.88a1,1,0,1,1,0-2h0a1,1,0,0,1,0,2Z"/><polygon class="cls-2" points="51.02 39.51 51.02 39.51 51.02 39.51 51.02 39.51"/><path class="cls-1" d="M51,40.51a1,1,0,0,1,0-2h0a1,1,0,0,1,0,2Z"/><polygon class="cls-1" points="67.7 49.14 67.7 145.41 51.02 155.04 51.02 58.77 67.7 49.14"/><path class="cls-1" d="M51,156a1,1,0,0,1-.5-.13A1,1,0,0,1,50,155V58.77a1,1,0,0,1,.5-.87L67.2,48.27a1,1,0,0,1,1,0,1,1,0,0,1,.5.87v96.27a1,1,0,0,1-.5.87l-16.68,9.63A1,1,0,0,1,51,156Zm1-96.7v94l14.68-8.47v-94Z"/><polygon class="cls-2" points="67.7 49.14 67.7 49.14 67.7 49.14 67.7 49.14"/><path class="cls-1" d="M67.72,50.14a1,1,0,1,1,0-2h0a1,1,0,0,1,0,2Z"/><polygon class="cls-2" points="51.02 78.02 51.02 78.02 51.02 78.02 51.02 78.02"/><path class="cls-1" d="M51,79a1,1,0,0,1,0-2h0a1,1,0,1,1,0,2Z"/><path class="cls-1" d="M67.72,107.9a1,1,0,1,1,0-2h0a1,1,0,0,1,0,2Z"/><rect class="cls-2" x="34.35" y="106.9"/><path class="cls-1" d="M34.37,107.9a1,1,0,1,1,0-2h0a1,1,0,1,1,0,2Z"/><path class="cls-1" d="M101.07,88.65a1,1,0,0,1,0-2h0a1,1,0,0,1,0,2Z"/><rect class="cls-2" x="84.38" y="20.26"/><path class="cls-1" d="M84.4,21.26a1,1,0,0,1-1-1,1,1,0,0,1,1-1h0a1,1,0,0,1,0,2Z"/><path class="cls-1" d="M67.72,11.63a1,1,0,1,1,0-2h0a1,1,0,0,1,0,2Z"/><path class="cls-1" d="M101.07,30.88a1,1,0,0,1,0-2h0a1,1,0,0,1,0,2Z"/><path class="cls-1" d="M101.07,69.39a1,1,0,0,1,0-2h0a1,1,0,0,1,0,2Z"/><path class="cls-1" d="M101.07,50.14a1,1,0,0,1,0-2h0a1,1,0,0,1,0,2Z"/><polygon class="cls-1" points="101.05 29.88 101.05 126.16 84.38 135.78 84.38 39.51 101.05 29.88"/><path class="cls-1" d="M84.38,136.79a1,1,0,0,1-.5-.14,1,1,0,0,1-.5-.86V39.51a1,1,0,0,1,.5-.87L100.55,29a1,1,0,0,1,1.5.86v96.28a1,1,0,0,1-.5.86l-16.67,9.63A1,1,0,0,1,84.38,136.79Zm1-96.7v94l14.67-8.47v-94Z"/><rect class="cls-2" x="84.38" y="97.28"/><path class="cls-1" d="M84.4,98.28a1,1,0,0,1-1-1,1,1,0,0,1,1-1h0a1,1,0,0,1,0,2Z"/><path class="cls-1" d="M84.4,79a1,1,0,1,1,0-2h0a1,1,0,0,1,0,2Z"/><path class="cls-1" d="M84.4,59.77a1,1,0,0,1-1-1,1,1,0,0,1,1-1h0a1,1,0,0,1,0,2Z"/><path class="cls-1" d="M67.72,107.9a1,1,0,1,1,0-2h0a1,1,0,0,1,0,2Z"/><path class="cls-1" d="M51,2a1,1,0,0,1,0-2h0a1,1,0,0,1,0,2Z"/><rect class="cls-2" x="34.35" y="10.63"/><path class="cls-1" d="M34.37,11.63a1,1,0,1,1,0-2h0a1,1,0,0,1,0,2Z"/><path class="cls-4" d="M84.38,20.26,67.7,10.63,51,1,34.35,10.63,26,15.44l-8.34,4.82L1,29.88l16.67,9.63,16.68,9.63L51,58.77,67.7,49.14l16.68-9.63,16.67-9.63ZM51,39.51,34.35,29.88,51,20.26,67.7,29.88Z"/><polygon class="cls-1" points="51.02 20.25 51.02 39.51 34.35 29.88 51.02 20.25"/><path class="cls-1" d="M51,40.51a1,1,0,0,1-.5-.13L33.85,30.75a1,1,0,0,1,0-1.73l16.67-9.63a1,1,0,0,1,1,0,1,1,0,0,1,.5.87V39.51a1,1,0,0,1-.5.87A1,1,0,0,1,51,40.51ZM36.35,29.88,50,37.78V22Z"/><polygon class="cls-3" points="67.7 29.88 51.02 39.51 51.02 20.25 67.7 29.88"/><path class="cls-1" d="M51,40.51a1,1,0,0,1-.5-.13,1,1,0,0,1-.5-.87V20.26a1,1,0,0,1,.5-.87,1,1,0,0,1,1,0L68.2,29a1,1,0,0,1,0,1.73L51.52,40.38A1,1,0,0,1,51,40.51ZM52,22V37.78l13.68-7.9Z"/><path class="cls-1" d="M51,2a1,1,0,0,1,0-2h0a1,1,0,0,1,0,2Z"/><path class="cls-1" d="M84.4,40.51a1,1,0,1,1,0-2h0a1,1,0,0,1,0,2Z"/><path class="cls-1" d="M67.72,11.63a1,1,0,1,1,0-2h0a1,1,0,0,1,0,2Z"/><path class="cls-1" d="M1,127.16a1,1,0,1,1,0-2H1a1,1,0,0,1,0,2Z"/><path class="cls-1" d="M84.4,156a1,1,0,1,1,0-2h0a1,1,0,0,1,0,2Z"/><path class="cls-1" d="M1,107.9a1,1,0,1,1,0-2H1a1,1,0,0,1,0,2Z"/><path class="cls-1" d="M34.37,165.67a1,1,0,1,1,0-2h0a1,1,0,1,1,0,2Z"/><path class="cls-1" d="M17.69,156a1,1,0,0,1,0-2h0a1,1,0,0,1,0,2Z"/><path class="cls-1" d="M17.69,156a1,1,0,0,1,0-2h0a1,1,0,0,1,0,2Z"/><path class="cls-1" d="M34.37,69.39a1,1,0,1,1,0-2h0a1,1,0,0,1,0,2Z"/><path class="cls-1" d="M17.69,79a1,1,0,0,1,0-2h0a1,1,0,0,1,0,2Z"/><path class="cls-1" d="M84.4,79a1,1,0,1,1,0-2h0a1,1,0,0,1,0,2Z"/><path class="cls-1" d="M17.69,79a1,1,0,0,1,0-2h0a1,1,0,0,1,0,2Z"/><polygon class="cls-5" points="51.02 116.53 51.02 155.04 34.35 145.41 34.35 126.16 51.02 116.53"/><path class="cls-1" d="M51,156a1,1,0,0,1-.5-.13l-16.67-9.63a1,1,0,0,1-.5-.87V126.16a1,1,0,0,1,.5-.87l16.67-9.63a1,1,0,0,1,1,0,1,1,0,0,1,.5.87V155a1,1,0,0,1-.5.87A1,1,0,0,1,51,156Zm-15.67-11.2L50,153.31v-35l-14.67,8.47Z"/><polygon class="cls-5" points="67.7 145.41 67.7 164.67 51.02 155.04 67.7 145.41"/><path class="cls-1" d="M67.7,165.67a1,1,0,0,1-.5-.14l-16.68-9.62a1,1,0,0,1,0-1.74l16.68-9.62a1,1,0,0,1,1.5.86v19.26a1,1,0,0,1-.5.86A1,1,0,0,1,67.7,165.67ZM53,155l13.68,7.9v-15.8Z"/><path class="cls-1" d="M51,156a1,1,0,0,1,0-2h0a1,1,0,0,1,0,2Z"/><path class="cls-1" d="M51,79a1,1,0,0,1,0-2h0a1,1,0,1,1,0,2Z"/><path class="cls-6" d="M34.35,49.14,17.67,39.51,1,29.88V145.41L17.67,155V116.53l16.68,9.63L51,116.53V58.77Zm0,57.76L17.67,97.27V58.77l16.68,9.62Z"/><polygon class="cls-1" points="34.35 68.39 34.35 87.65 17.67 97.27 17.67 58.77 34.35 68.39"/><path class="cls-1" d="M17.67,98.27a1,1,0,0,1-1-1V58.77a1,1,0,0,1,.5-.87,1,1,0,0,1,1,0l16.68,9.63a1,1,0,0,1,.5.86V87.65a1,1,0,0,1-.5.86L18.17,98.14A1,1,0,0,1,17.67,98.27Zm1-37.77v35l14.68-8.47V69Z"/><polygon class="cls-5" points="34.35 87.65 34.35 106.9 17.67 97.27 34.35 87.65"/><path class="cls-1" d="M34.35,107.9a1,1,0,0,1-.5-.13L17.17,98.14a1,1,0,0,1,0-1.73l16.68-9.63a1,1,0,0,1,1,0,1,1,0,0,1,.5.87V106.9a1,1,0,0,1-1,1ZM19.67,97.27l13.68,7.9V89.38Z"/><polygon class="cls-5" points="84.38 135.78 67.7 145.41 67.7 126.16 84.38 135.78"/><path class="cls-1" d="M67.7,146.41a1,1,0,0,1-.5-.13,1,1,0,0,1-.5-.87V126.16a1,1,0,0,1,.5-.87,1,1,0,0,1,1,0l16.68,9.63a1,1,0,0,1,0,1.73L68.2,146.28A1,1,0,0,1,67.7,146.41Zm1-18.52v15.79l13.68-7.89Z"/><polygon class="cls-2" points="67.7 145.41 67.7 145.41 67.7 145.41 67.7 145.41"/><path class="cls-1" d="M67.72,146.41a1,1,0,1,1,0-2h0a1,1,0,0,1,0,2Z"/><polygon class="cls-2" points="67.7 87.65 67.7 87.65 67.7 87.65 67.7 87.65"/><path class="cls-1" d="M67.72,88.65a1,1,0,1,1,0-2h0a1,1,0,0,1,0,2Z"/><polygon class="cls-2" points="34.35 145.41 34.35 145.41 34.35 145.41 34.35 145.41"/><path class="cls-1" d="M34.37,146.41a1,1,0,1,1,0-2h0a1,1,0,1,1,0,2Z"/><polygon class="cls-2" points="17.67 97.28 17.67 97.28 17.67 97.28 17.67 97.28"/><path class="cls-1" d="M17.69,98.28a1,1,0,0,1-1-1,1,1,0,0,1,1-1h0a1,1,0,0,1,0,2Z"/><path class="cls-1" d="M34.37,127.16a1,1,0,1,1,0-2h0a1,1,0,1,1,0,2Z"/><polygon class="cls-2" points="17.67 116.53 17.67 116.53 17.67 116.53 17.67 116.53"/><path class="cls-1" d="M17.69,117.53a1,1,0,0,1,0-2h0a1,1,0,0,1,0,2Z"/><path class="cls-1" d="M51,59.77a1,1,0,0,1-1-1,1,1,0,0,1,1-1h0a1,1,0,0,1,0,2Z"/><polygon class="cls-2" points="17.67 135.79 17.67 135.79 17.67 135.79 17.67 135.79"/><path class="cls-1" d="M17.69,136.79a1,1,0,0,1-1-1,1,1,0,0,1,1-1h0a1,1,0,0,1,0,2Z"/><path class="cls-1" d="M34.37,107.9a1,1,0,1,1,0-2h0a1,1,0,1,1,0,2Z"/><polygon class="cls-2" points="67.7 126.16 67.7 126.16 67.7 126.16 67.7 126.16"/><path class="cls-1" d="M67.72,127.16a1,1,0,1,1,0-2h0a1,1,0,0,1,0,2Z"/><path class="cls-1" d="M34.37,88.65a1,1,0,1,1,0-2h0a1,1,0,1,1,0,2Z"/><polygon class="cls-2" points="51.02 97.28 51.02 97.28 51.02 97.28 51.02 97.28"/><path class="cls-1" d="M51,98.28a1,1,0,0,1-1-1,1,1,0,0,1,1-1h0a1,1,0,0,1,0,2Z"/><polygon class="cls-2" points="67.7 106.9 67.7 106.9 67.7 106.9 67.7 106.9"/><path class="cls-1" d="M67.72,107.9a1,1,0,1,1,0-2h0a1,1,0,0,1,0,2Z"/><polygon class="cls-2" points="51.02 135.79 51.02 135.79 51.02 135.79 51.02 135.79"/><path class="cls-1" d="M51,136.79a1,1,0,0,1-1-1,1,1,0,0,1,1-1h0a1,1,0,0,1,0,2Z"/><path class="cls-1" d="M67.72,165.67a1,1,0,1,1,0-2h0a1,1,0,0,1,0,2Z"/><rect class="cls-2" x="34.35" y="164.67"/><path class="cls-1" d="M34.37,165.67a1,1,0,1,1,0-2h0a1,1,0,1,1,0,2Z"/><path class="cls-1" d="M101.07,146.41a1,1,0,0,1,0-2h0a1,1,0,0,1,0,2Z"/><rect class="cls-2" x="84.38" y="78.02"/><path class="cls-1" d="M84.4,79a1,1,0,1,1,0-2h0a1,1,0,0,1,0,2Z"/><path class="cls-1" d="M67.72,69.39a1,1,0,1,1,0-2h0a1,1,0,0,1,0,2Z"/><path class="cls-1" d="M101.07,88.65a1,1,0,0,1,0-2h0a1,1,0,0,1,0,2Z"/><path class="cls-1" d="M101.07,127.16a1,1,0,0,1,0-2h0a1,1,0,0,1,0,2Z"/><polygon class="cls-5" points="101.05 126.16 101.05 145.41 84.38 155.04 84.38 135.78 101.05 126.16"/><path class="cls-1" d="M84.38,156a1,1,0,0,1-.5-.13,1,1,0,0,1-.5-.87V135.79a1,1,0,0,1,.5-.87l16.67-9.63a1,1,0,0,1,1,0,1,1,0,0,1,.5.87v19.25a1,1,0,0,1-.5.87l-16.67,9.63A1,1,0,0,1,84.38,156Zm1-19.68v16.95l14.67-8.47v-17Z"/><path class="cls-1" d="M101.07,107.9a1,1,0,0,1,0-2h0a1,1,0,0,1,0,2Z"/><rect class="cls-2" x="84.38" y="155.04"/><path class="cls-1" d="M84.4,156a1,1,0,1,1,0-2h0a1,1,0,0,1,0,2Z"/><polygon class="cls-1" points="84.38 135.78 84.38 155.04 67.7 164.67 67.7 145.41 84.38 135.78"/><path class="cls-1" d="M67.7,165.67a1,1,0,0,1-.5-.14,1,1,0,0,1-.5-.86V145.41a1,1,0,0,1,.5-.86l16.68-9.63a1,1,0,0,1,1,0,1,1,0,0,1,.5.87V155a1,1,0,0,1-.5.87L68.2,165.53A1,1,0,0,1,67.7,165.67Zm1-19.68v16.95l14.68-8.48V137.52Z"/><path class="cls-1" d="M84.4,136.79a1,1,0,0,1-1-1,1,1,0,0,1,1-1h0a1,1,0,0,1,0,2Z"/><polygon class="cls-3" points="67.7 164.67 51.02 174.3 34.35 164.67 26.01 159.85 17.67 155.04 34.35 145.41 51.02 155.04 67.7 164.67"/><path class="cls-1" d="M51,175.3a1,1,0,0,1-.5-.14L17.17,155.91a1,1,0,0,1,0-1.74l16.68-9.62a1,1,0,0,1,1,0L68.2,163.8a1,1,0,0,1,.5.87,1,1,0,0,1-.5.86l-16.68,9.63A1,1,0,0,1,51,175.3ZM19.67,155,51,173.14l14.68-8.47-31.35-18.1Z"/><polygon class="cls-1" points="34.35 126.16 34.35 145.41 17.67 155.04 17.67 116.53 34.35 126.16"/><path class="cls-1" d="M17.67,156a1,1,0,0,1-1-1V116.53a1,1,0,0,1,.5-.87,1,1,0,0,1,1,0l16.68,9.63a1,1,0,0,1,.5.87v19.25a1,1,0,0,1-.5.87l-16.68,9.63A1,1,0,0,1,17.67,156Zm1-37.78v35.05l14.68-8.47V126.73Z"/><path class="cls-1" d="M84.4,117.53a1,1,0,1,1,0-2h0a1,1,0,0,1,0,2Z"/><path class="cls-1" d="M67.72,165.67a1,1,0,1,1,0-2h0a1,1,0,0,1,0,2Z"/><path class="cls-1" d="M51,59.77a1,1,0,0,1-1-1,1,1,0,0,1,1-1h0a1,1,0,0,1,0,2Z"/><rect class="cls-2" x="34.35" y="68.39"/><path class="cls-1" d="M34.37,69.39a1,1,0,1,1,0-2h0a1,1,0,0,1,0,2Z"/><path class="cls-1" d="M51,59.77a1,1,0,0,1-1-1,1,1,0,0,1,1-1h0a1,1,0,0,1,0,2Z"/><path class="cls-1" d="M84.4,98.28a1,1,0,0,1-1-1,1,1,0,0,1,1-1h0a1,1,0,0,1,0,2Z"/><path class="cls-1" d="M67.72,69.39a1,1,0,1,1,0-2h0a1,1,0,0,1,0,2Z"/></g></g></svg>